# ProBuilder 4.0.5
# https://unity3d.com/unity/features/worldbuilding/probuilder
# 3/6/2020 11:39:22 PM

mtllib ./l1_geo06.mtl
o l1_geo06

g l1_geo06
v 8.25 0 35.5
v 8.25 0 30
v 8.25 10.5 30
v 8.25 10.5 35.5
v 8.25 0 29.5
v 8.25 4 29.5
v 8.25 4 30
v 8.25 0 28.5
v 8.25 4 28.5
v 1.25 10.5 50
v 1.25 10.5 30
v 1.25 0 30
v 1.25 0 50
v 1.25 4 30
v 1.25 4 29.5
v 1.25 0 29.5
v 1.25 4 28.5
v 1.25 0 28.5
v 10 4 23.75
v -0.5 4 23.75
v 10 5.75 -7
v -0.5 5.75 -7
v 10 5.75 -18
v -0.5 5.75 -18
v 6.5 0 -7
v 10 0 -7
v 6.5 5.75 -7
v 10 0 -18
v -0.5 0 -18
v -0.5 0 -7
v 3 0 -7
v 3 5.75 -7
v -6.5 4 10.5
v -13.5 4 10.5
v -6.5 4 23.25
v -13.5 4 23.25
v -4 4 21.5
v -4 4 10.5
v -4 7 21.5
v -4 7 10.5
v 13.5 0 21.5
v 10 0 21.5
v 13.5 7 21.5
v 10 7 21.5
v 13.5 4 21.5
v 16 4 23.25
v 16 0 23.25
v 23 4 23.25
v 23 0 23.25
v 23 4 0
v 23 0 0
v 8.25 4 0
v 8.25 0 0
v -0.5 0 23.75
v -0.5 0 21.5
v -0.5 4 21.5
v 6.5 3.75 -4
v 3 3.75 -4
v 6.5 5 -4
v 3 5 -4
v 3 3.75 -5
v 3 0 -5
v 3 0 -4
v 3 3.75 -6
v 3 0 -6
v 3 3.75 -7
v 6.5 3.75 -7
v 6.5 3.75 -6
v 6.5 0 -6
v 6.5 0 -4
v 6.5 0 -5
v 6.5 3.75 -5
v 8.25 0 50
v 8.25 0 43
v 8.25 10.5 50
v 8.25 10.5 43
v 13.5 0 10.5
v 10.5 0 10.5
v 13.5 4 10.5
v 10.5 4 10.5
v 10.5 0 8.75
v 10.5 4 8.75
v 13.5 0 8.75
v 13.5 4 8.75
v -13.5 4 0
v 23 4 10.5
v 8.25 0 -4
v 8.25 5 0
v 8.25 5 -4
v 16 4 10.5
v 13.5 7 10.5
v 1.25 0 0
v 1.25 0 -4
v 10 0 23.75
v -0.5 0 0
v 10 0 0
v -13.5 0 21.5
v -13.5 0 0
v 23 0 21.5
v -4 0 21.5
v -6.5 0 23.25
v -13.5 0 23.25
v 1.25 5 -4
v 1.25 5 0
v 1.25 4 0
v 10 4 21.5
v -1 0 10.5
v -4 0 10.5
v -1 4 10.5
v -4 0 8.75
v -4 4 8.75
v -1 0 8.75
v -1 4 8.75
v -0.5 7 21.5

vt -74.5 -3.25
vt -80 -3.25
vt -80 7.25
vt -74.5 7.25
vt -80.5 -3.25
vt -80.5 0.75
vt -80 0.75
vt -81.5 -3.25
vt -81.5 0.75
vt 60 7.25
vt 80 7.25
vt 80 -3.25
vt 60 -3.25
vt 80 0.75
vt 80.5 0.75
vt 80.5 -3.25
vt 154.7675 -2.5
vt 155.7675 -2.5
vt 155.7675 -6.5
vt 154.7675 -6.5
vt -153.5 -50.75
vt -164 -50.75
vt -162.25 -46
vt -155.25 -46
vt -162.25 -44.5
vt -155.25 -44.5
vt 3.5 0
vt -7 0
vt 3.5 -11
vt -7 -11
vt 2.500015 -4.053116E-05
vt -0.9999847 -4.053116E-05
vt 2.500015 5.749959
vt -0.9999847 5.749959
vt -1 0
vt -1 5.75
vt -12 0
vt -12 5.75
vt 22.50005 0.0003380775
vt 22.50005 5.75034
vt 12.00005 0.0003380775
vt 12.00005 5.75034
vt 18.99987 0.0001301765
vt 18.99987 5.750132
vt 7.999866 0.0001301765
vt 7.999866 5.750132
vt 8 -1.907349E-06
vt 8.000001 5.75
vt 4.499998 -1.430511E-06
vt 4.499999 5.75
vt -170 -64
vt -177 -64
vt -170 -51.25
vt -177 -51.25
vt -167.5 -53
vt -167.5 -64
vt 73.5 -2.25
vt 84.5 -2.25
vt 73.5 0.75
vt 84.5 0.75
vt 160 -6
vt 163.5 -6
vt 160 1
vt 163.5 1
vt 174.3735 0.75
vt 174.3735 -3.25
vt 171.3219 0.75
vt 171.3219 -3.25
vt 157.4997 0.75
vt 157.4997 -3.25
vt 150.4997 0.75
vt 150.4997 -3.25
vt -73.75 0.75
vt -73.75 -3.25
vt -97 0.75
vt -97 -3.25
vt -150.5 0.75
vt -150.5 -3.25
vt -165.25 0.75
vt -165.25 -3.25
vt 130.4048 -3.25
vt 130.4048 0.75
vt 135.4669 -3.25
vt 135.4669 0.75
vt 86.2503 -3.25
vt 86.2503 0.75
vt 88.5003 -3.25
vt 88.5003 0.75
vt 6.95 5.4
vt 3.45 5.4
vt 6.95 6.65
vt 3.45 6.65
vt -4 -3
vt -3 -3
vt -3 -4
vt -4 -4
vt 1.164297 -4
vt 1.164297 -0.25
vt 2.164297 -0.25
vt 2.164297 -4
vt 4 -3
vt 5 -3
vt 5 -4
vt 4 -4
vt -1.033842 -4.000001
vt -2.033842 -4.000001
vt -2.033842 -0.25
vt -1.033842 -0.25
vt -160.5 -79.5
vt -160.5 -78.5
vt -157 -78.5
vt -157 -79.5
vt -157 -80.5
vt -157 -81.5
vt -160.5 -81.5
vt -160.5 -80.5
vt -2.499994 0.2103467
vt 1.000006 0.2103467
vt -2.499994 2.210347
vt 1.000006 2.210347
vt -81.5 7.25
vt -163.75 -6
vt -166.75 -6
vt -163.75 -2
vt -166.75 -2
vt 0.25 0
vt -1.5 0
vt 0.25 4
vt -1.5 4
vt 1.5 0
vt 1.5 4
vt -0.25 0
vt -0.25 4
vt -140.5 -74.5
vt -177 -74.5
vt -140.5 -64
vt 0 0
vt -4 0
vt 0 5
vt -4 5
vt 8.700001 1.65
vt 8.700001 6.650002
vt 6.949999 1.65
vt 6.949999 6.650002
vt -147.5 -64
vt -147.5 -51.25
vt -140.5 -51.25
vt -150 -53
vt -150 -64
vt -73.5 -2.25
vt -84.5 -2.25
vt -73.5 0.75
vt -84.5 0.75
vt 155.25 -74.5
vt 162.25 -74.5
vt 155.25 -78.5
vt 162.25 -78.5
vt 160.5 -78.5
vt 157 -78.5
vt 160.5 -81.5
vt 157 -81.5
vt 155.25 -24.5
vt 162.25 -24.5
vt 155.25 -46
vt 162.25 -46
vt 164 -50.75
vt 153.5 -50.75
vt 164 -53
vt 153.5 -53
vt 164 -74.5
vt 153.5 -74.5
vt 177 -53
vt 177 -74.5
vt 140.5 -74.5
vt 140.5 -53
vt 167.5 -53
vt 170 -51.25
vt 177 -51.25
vt 150 -53
vt 140.5 -51.25
vt 147.5 -51.25
vt -155.25 -78.5
vt -162.25 -78.5
vt -155.25 -74.5
vt -162.25 -74.5
vt 7.25 9.536743E-07
vt 7.25 -1.000001
vt 0.25 -1.000001
vt -19.60625 -3.250001
vt -19.60625 0.750001
vt -24.66837 -3.250001
vt -24.66837 0.750001
vt -86.25044 -3.25
vt -86.25044 0.75
vt -88.50044 -3.25
vt -88.50044 0.75
vt 7 -11
vt -10.5 -11
vt 7 0
vt -10.5 0
vt -156 0.7500072
vt -173.5 0.7500072
vt -156 -2.249999
vt -173.5 -2.249999
vt -162.5 -6
vt -165.5 -6
vt -162.5 -2
vt -165.5 -2
vt 2 0
vt 2 4
vt -1 4
vt 167 -6
vt 167 1
vt 93.51533 0.75
vt 93.51533 -3.25
vt 96.56696 0.75
vt 96.56696 -3.25
vt 169.5003 0.75
vt 169.5003 -3.25
vt 176.5003 0.75
vt 176.5003 -3.25
vt 73.75 0.75
vt 73.75 -3.25
vt 97 0.75
vt 97 -3.25
vt -176.5 0.75
vt -176.5 -3.25
vt -161.75 0.75
vt -161.75 -3.25
vt -153.5 -53
vt -164 -53
vt 163.5 -2
vt 174 -2
vt 174 1
vt 153.5 -81.5
vt 164 -81.5
vt 153.5 -92.5
vt 164 -92.5
vt 4 0
vt 4 5
vt 1.696657 1.648253
vt 1.700111 6.649451
vt 3.451611 1.647041
vt 3.455065 6.648239
vt -162.25 0.75
vt -155.25 0.75
vt -162.25 7.25
vt -155.25 7.25

vn -1 0 0
vn 1 0 0
vn 0 -1 0
vn 0 0 -1
vn 0 0 1
vn 0.5734624 0 -0.8192319
vn 0.9383431 0 -0.3457054
vn 0 1 0
vn -0.9383431 0 -0.3457054
vn -0.5734624 0 -0.8192319

g l1_geo06_0
usemtl floor5_2
f 87/156/8 93/157/8 92/155/8 53/154/8
f 25/161/8 31/160/8 63/158/8 70/159/8
f 8/164/8 18/165/8 13/163/8 73/162/8
f 94/167/8 54/166/8 18/165/8 8/164/8
f 42/169/8 55/168/8 54/166/8 94/167/8
f 96/171/8 95/170/8 55/168/8 42/169/8
f 98/173/8 97/172/8 55/168/8 95/170/8
f 99/175/8 51/174/8 96/171/8 42/169/8
f 102/178/8 101/177/8 100/176/8 97/172/8
f 47/181/8 49/180/8 99/175/8 41/179/8
f 28/237/8 29/238/8 30/236/8 26/235/8

g l1_geo06_1
usemtl wall62_2
f 4/4/1 3/3/1 2/2/1 1/1/1
f 7/7/1 6/6/1 5/5/1 2/2/1
f 12/12/2 11/11/2 10/10/2 13/13/2
f 16/16/2 15/15/2 14/14/2 12/12/2
f 40/60/2 39/59/2 37/57/2 38/58/2
f 41/61/4 42/62/4 44/64/4 43/63/4
f 45/65/6 46/67/6 47/68/6 41/66/6
f 46/69/4 48/71/4 49/72/4 47/70/4
f 48/73/1 50/75/1 51/76/1 49/74/1
f 50/77/5 52/79/5 53/80/5 51/78/5
f 18/81/7 54/83/7 20/84/7 17/82/7
f 54/85/2 55/87/2 56/88/2 20/86/2
f 75/4/1 76/121/1 74/8/1 73/1/1
f 79/124/5 80/125/5 78/123/5 77/122/5
f 80/128/1 82/129/1 81/127/1 78/126/1
f 82/131/4 84/129/4 83/127/4 81/130/4
f 84/131/2 79/133/2 77/132/2 83/130/2
f 45/150/1 43/152/1 91/153/1 79/151/1
f 52/188/4 105/187/4 104/186/4 88/126/4
f 19/192/9 94/191/9 8/189/9 9/190/9
f 106/196/1 42/195/1 94/193/1 19/194/1
f 38/204/5 79/203/5 91/201/5 40/202/5
f 109/207/5 38/208/5 108/206/5 107/205/5
f 38/128/1 111/129/1 110/127/1 108/126/1
f 111/210/4 113/211/4 112/35/4 110/209/4
f 113/131/2 109/133/2 107/132/2 112/130/2
f 39/213/4 114/64/4 55/62/4 100/212/4
f 101/217/10 35/216/10 37/214/10 100/215/10
f 102/221/4 36/220/4 35/218/4 101/219/4
f 98/225/2 85/224/2 36/222/2 102/223/2
f 92/229/5 105/228/5 85/226/5 98/227/5
f 114/234/4 44/64/4 106/232/4 56/233/4
f 3/248/5 11/247/5 14/245/5 7/246/5

g l1_geo06_2
usemtl ceil3_5
f 72/112/3 57/111/3 58/110/3
f 61/109/3 72/112/3 58/110/3
f 61/109/3 68/113/3 72/112/3
f 61/109/3 64/116/3 68/113/3
f 64/116/3 66/115/3 68/113/3
f 66/115/3 67/114/3 68/113/3
f 20/22/3 19/21/3 9/24/3
f 9/24/3 17/23/3 20/22/3
f 17/23/3 9/24/3 7/26/3
f 7/26/3 14/25/3 17/23/3
f 36/54/3 34/52/3 33/51/3
f 33/51/3 35/53/3 36/54/3
f 37/55/3 35/53/3 33/51/3
f 33/51/3 38/56/3 37/55/3
f 34/52/3 85/135/3 50/134/3
f 50/134/3 86/136/3 34/52/3
f 86/136/3 48/147/3 46/146/3
f 46/146/3 90/145/3 86/136/3
f 45/148/3 79/149/3 90/145/3
f 90/145/3 46/146/3 45/148/3
f 104/185/3 103/183/3 89/182/3
f 89/182/3 88/184/3 104/185/3
f 20/22/3 56/231/3 106/230/3
f 106/230/3 19/21/3 20/22/3

g l1_geo06_3
usemtl doortrak
f 6/6/1 9/9/1 8/8/1 5/5/1
f 18/19/2 17/18/2 15/17/2 16/20/2
f 65/100/2 64/99/2 61/98/2 62/97/2
f 72/108/1 68/107/1 69/106/1 71/105/1

g l1_geo06_4
usemtl wlitfull0
f 88/139/1 89/140/1 87/138/1 53/137/1
f 92/137/2 93/239/2 103/240/2 104/139/2

g l1_geo06_5
usemtl sw12_4
f 27/33/4 21/34/4 26/32/4 25/31/4
f 23/38/1 28/37/1 26/35/1 21/36/1
f 24/42/5 29/41/5 28/39/5 23/40/5
f 22/46/2 30/45/2 29/43/2 24/44/2
f 32/50/4 31/49/4 30/47/4 22/48/4
f 59/91/5 60/92/5 58/90/5 57/89/5
f 32/120/4 27/119/4 67/117/4 66/118/4
f 59/144/5 70/143/5 87/141/5 89/142/5
f 93/241/5 63/243/5 60/244/5 103/242/5

g l1_geo06_6
usemtl door3_4
f 62/95/2 61/94/2 58/93/2 63/96/2
f 68/102/1 67/101/1 25/104/1 69/103/1

g l1_geo06_7
usemtl door3_5
f 31/95/2 66/94/2 64/93/2 65/96/2
f 57/102/1 72/101/1 71/104/1 70/103/1

g l1_geo06_8
usemtl tlite6_5
f 21/27/3 22/28/3 24/30/3 23/29/3
f 43/199/3 39/200/3 40/198/3 91/197/3

