# ProBuilder 4.0.5
# https://unity3d.com/unity/features/worldbuilding/probuilder
# 3/22/2020 5:18:38 PM

mtllib ./l1_geo05.mtl
o l1_geo05

g l1_geo05
v 0 0 -1
v -14.75 0 -1
v 0 0 -8.5
v -1 0 -8.5
v -14.75 -0.5 -1
v -7.5 -0.5 -13.75
v -26 -0.5 -6.5
v -14.75 -0.5 -14
v 0 0.5 -8.5
v 0 0.5 -1
v -26 -1 -6.5
v -14.75 -1 -14
v -35 -2 -57
v -47 -2 -53.75
v -43.5 -2 -60
v -49.5 -2 -57.5
v -45.5 -2 -43.75
v -52 -2 -50.75
v -52.25 -2 -34.5
v -56 -2 -50
v -28.5 -2 -37
v -37 -2 -29.75
v -47 -2 -28.5
v -43.5 9.5 -60
v -49.5 9.5 -57.5
v -43.5 -1 -60
v -33 9.5 -62.25
v -33 -1 -62.25
v -14.75 -2 -32
v -14.75 -2 -46
v -14.75 0.5 -32
v -14.75 0.5 -46
v -13.75 -2.5 -46
v -13.75 -2.5 -32
v -13.75 0.5 -46
v -13.75 0.5 -32
v -13.75 7 -32
v -14.75 7 -32
v -13.75 7 -46
v -14.75 7 -46
v -14.75 9.5 -46
v -14.75 9.5 -32
v -14.75 -1 -14.75
v -26.75 -1 -6.5
v -31.75 -1 -19.25
v -22 -1 -19
v -31.75 -1 -23
v -22 -1 -21
v 0 4 -8.5
v -1 4 -8.5
v -7.5 0 -13.75
v -7.5 4 -13.75
v -14.75 4 -14
v -26.75 9.5 -6.5
v -26 9.5 -6.5
v -31.75 9.5 -19.25
v -31.75 9.5 -23
v -47 9.5 -28.5
v -47 -1 -28.5
v -14.75 -2 -28.5
v -27.75 -2 -29.75
v -14.75 -2 -38.75
v -18.5 -2 -38.75
v -35.75 -2 -46.25
v -14.75 -2 -47
v -26.25 -2 -55.75
v -14.75 -2 -58.75
v -56.25 -2 -55
v -55.25 -2 -55
v -56.25 5.25 -55
v -55.25 5.25 -55
v -59.25 5.25 -58.5
v -59.25 -2 -58.5
v -59.25 5.25 -73
v -59.25 -2 -73
v -49.5 5.25 -57.5
v -49.5 5.25 -58.5
v -50 5.25 -62
v -59.25 5.25 -76.5
v -48.25 5.25 -67.75
v -48.25 5.25 -80
v -49.5 -2 -58.5
v -50 -2 -62
v -59.25 -2 -76.5
v -48.25 -2 -67.75
v -48.25 -2 -80
v -14.75 -1 -21
v -14.75 -1 -28.5
v -27.75 -1 -29.75
v -37 -1 -29.75
v -28.5 -1 -37
v -18.5 -1 -38.75
v -45.5 -1 -43.75
v -35.75 -1 -46.25
v -35 -1 -57
v -26.25 -1 -55.75
v -62.75 9.75 -73
v -64.75 9.75 -69.5
v -62.75 9.75 -76.5
v -68.25 9.75 -76.5
v -72 9.75 -71
v -61.25 9.75 -57.25
v -68.5 9.75 -57.5
v -61.25 9.75 -48
v -68.5 9.75 -48
v -66.5 9.75 -40.75
v -75.75 9.75 -40.75
v -57.75 9.75 -27.75
v -63 9.75 -19.5
v -55.5 9.75 -27.75
v -50 9.75 -19.5
v -53.25 9.75 -34.5
v -48 9.75 -28.5
v -52.25 9.75 -34.5
v -47 9.75 -28.5
v -52.25 9.5 -34.5
v -14.75 9.5 -14
v -14.75 9.5 -14.75
v -22 9.5 -19
v -22 9.5 -21
v -26 9.5 -62.25
v -14.75 9.5 -21
v -14.75 9.5 -58.75
v -56 9.5 -50
v -55.25 9.5 -55
v -62.75 5.25 -73
v -64.75 5.25 -69.5
v -62.75 5.25 -76.5
v -68.25 5.25 -76.5
v -72 5.25 -71
v -61.25 5.25 -57.25
v -68.5 5.25 -57.5
v -61.25 5.25 -48
v -68.5 5.25 -48
v -66.5 5.25 -40.75
v -75.75 5.25 -40.75
v -57.75 5.25 -27.75
v -63 5.25 -19.5
v -55.5 5.25 -27.75
v -50 5.25 -19.5
v -53.25 5.25 -34.5
v -48 5.25 -28.5
v -52.25 5.25 -34.5
v -47 5.25 -28.5
v -62.75 -2 -76.5
v -62.75 -2 -73
v -59.25 9.75 -73
v -59.25 9.75 -76.5
v -14.75 9.5 -28.5
v -14.75 -1 -58.75
v -26 -1 -62.25
v -56 -1.75 -50
v -55.25 -1.75 -55
v 0 4 -1
v -14.75 4 -1
v -26 4 -6.5
v -1.25 0 -1
v -1.25 4 -1
v -26 9.5 -82.25
v -33 9.5 -82.25
v -47.25 -2 -80
v -48.25 2.25 -80
v -47.25 2.25 -80
v -48.25 2.25 -67.75
v -47.25 -2 -67.75
v -47.25 2.25 -67.75
v -40.5 2.25 -67.75
v -40.5 2.25 -80
v -40.5 -2 -80
v -40.5 -2 -67.75
v -60.25 9.75 -73
v -60.25 -2 -73
v -60.25 9.75 -76.5
v -60.25 -2 -76.5

vt 129.25 36.75
vt 144 36.75
vt 129.25 29.25
vt 130.25 29.25
vt 136.75 24
vt 155.25 31.25
vt 144 23.75
vt -3.75 3
vt 3.75 3
vt -3.75 3.5
vt 3.75 3.5
vt 20.64174 5.750005
vt 7.120926 5.750005
vt 20.64174 5.250004
vt 7.120926 5.250004
vt 164.25 -19.25
vt 176.25 -16
vt 172.75 -22.25
vt 178.75 -19.75
vt 174.75 -6
vt 181.25 -13
vt 181.5 3.25
vt 185.25 -12.25
vt 181.5 3.249998
vt 157.75 0.7500021
vt 166.25 8
vt 176.25 9.25
vt -150.9039 -4.25
vt -157.4039 -4.25
vt -150.9039 7.25
vt -157.4039 7.25
vt -164.2534 7.250003
vt -164.2534 -3.250003
vt -153.515 7.250003
vt -153.515 -3.250003
vt 5.75 -4.25
vt -8.25 -4.25
vt 5.75 -1.75
vt -8.25 -1.75
vt 8.25 -4.75
vt -5.75 -4.75
vt 8.25 -1.75
vt -5.75 -1.75
vt 143 5.75
vt 144 5.75
vt 143 -8.25
vt 144 -8.25
vt 143 -1.75
vt 144 -1.75
vt 143 4.75
vt 144 4.75
vt -143 5.75
vt -144 5.75
vt -143 -8.25
vt -144 -8.25
vt -144 -1.75
vt -143 -1.75
vt -144 4.75
vt -143 4.75
vt -8.25 4.75
vt 5.75 4.75
vt -8.25 7.25
vt 5.75 7.25
vt 144 23
vt 156 31.25
vt 161 18.5
vt 151.25 18.75
vt 161 14.75
vt 151.25 16.75
vt -129.3384 -2.25
vt -130.3384 -2.25
vt -129.3384 1.75
vt -130.3384 1.75
vt -82.94798 -2.250002
vt -82.94798 1.750002
vt -91.30337 -2.250002
vt -91.30337 1.750002
vt -135.8417 -2.75
vt -135.8417 1.75
vt -143.096 -2.75
vt -143.096 1.75
vt 155.8688 -3.25
vt 155.1188 -3.25
vt 155.8688 7.25
vt 155.1188 7.25
vt 27.86074 7.250004
vt 27.86074 -3.250004
vt 41.55609 7.250004
vt 41.55609 -3.250004
vt -18.5 7.25
vt -18.5 -3.25
vt -14.75 7.25
vt -14.75 -3.25
vt 146.447 7.25
vt 146.447 -3.25
vt 162.6585 7.25
vt 162.6585 -3.25
vt 144 9.25
vt 157 8
vt 144 -1
vt 147.75 -1
vt 165 -8.5
vt 144 -9.25
vt 165 -8.499999
vt 155.5 -18
vt 144 -21
vt 185.3139 -4.25
vt 184.3139 -4.25
vt 185.3139 3
vt 184.3139 3
vt 133.819 6.807766
vt 133.819 -0.442234
vt 138.4287 6.807766
vt 138.4287 -0.442234
vt 20.75 6.807768
vt 20.75 -0.4422338
vt 35.25 6.807766
vt 35.25 -0.4422362
vt -184.5 -17.25
vt -178.75 -19.75
vt -185.5 -17.25
vt -178.75 -20.75
vt -188.5 -20.75
vt -179.25 -24.25
vt -188.5 -38.75
vt -177.5 -30
vt -177.5 -42.25
vt 184.5 -17.25
vt 185.5 -17.25
vt 178.75 -20.75
vt 188.5 -20.75
vt 179.25 -24.25
vt 188.5 -38.75
vt 177.5 -30
vt 177.5 -30
vt 177.5 -42.25
vt 144 16.75
vt 176.25 9.249998
vt -105.1989 -3.008931
vt -118.1048 -3.008929
vt -105.1989 -4.008933
vt -118.1048 -4.008931
vt 155.5135 -3.008931
vt 142.4536 -3.008931
vt 155.5135 -4.008931
vt 142.4536 -4.008931
vt 176.0363 -3.008931
vt 165.9585 -3.008931
vt 176.0363 -4.008931
vt 165.9585 -4.008931
vt 131.6802 -3.008931
vt 120.5083 -3.008931
vt 131.6802 -4.008931
vt 120.5083 -4.008931
vt -146.3387 -3.008932
vt -164.6297 -3.008929
vt -146.3387 -4.008935
vt -164.6297 -4.008931
vt 154.7057 -3.008931
vt 135.8958 -3.008931
vt 154.7057 -4.008931
vt 135.8958 -4.008931
vt -97.2272 -3.008931
vt -110.6622 -3.008931
vt -97.2272 -4.008931
vt -110.6622 -4.008931
vt 103.8315 -3.008931
vt 86.92554 -3.008931
vt 103.8315 -4.008931
vt 86.92554 -4.008931
vt -192 -35.25
vt -194 -31.75
vt -192 -38.75
vt -197.5 -38.75
vt -201.25 -33.25
vt -190.5 -19.5
vt -197.75 -19.75
vt -190.5 -10.25
vt -197.75 -10.25
vt -195.75 -3
vt -205 -3
vt -195.75 -2.999999
vt -205 -2.999997
vt -187 9.999998
vt -192.25 18.25
vt -187 10
vt -184.75 10
vt -179.25 18.25
vt -182.5 3.25
vt -177.25 9.25
vt -177.25 9.249999
vt -181.5 3.250001
vt -176.25 9.249999
vt -109.1001 7.5
vt -117.0727 7.5
vt -109.1001 7.25
vt -117.0727 7.25
vt -144 23.75
vt -161 18.5
vt -155.25 31.25
vt -156 31.25
vt -144 23
vt -151.25 18.75
vt -151.25 18.75
vt -151.25 16.75
vt -161 14.75
vt -155.25 -24.5
vt -176.25 9.25
vt -155.25 -24.5
vt -144 16.75
vt -144 -21
vt -162.25 -24.5
vt -172.75 -22.25
vt -185.25 -12.25
vt -172.75 -22.25
vt -156.0514 7.25
vt -162.3214 7.25
vt -156.0514 3
vt -162.3214 3
vt 192 -35.25
vt 194 -31.75
vt 192 -38.75
vt 197.5 -38.75
vt 201.25 -33.25
vt 190.5 -19.5
vt 197.75 -19.75
vt 190.5 -10.25
vt 197.75 -10.25
vt 195.75 -2.999999
vt 205 -3
vt 195.75 -3.000001
vt 187 10
vt 192.25 18.25
vt 184.75 10
vt 179.25 18.25
vt 182.5 3.25
vt 177.25 9.25
vt 117.0727 3
vt 109.1001 3
vt 117.0727 -4.25
vt 109.1001 -4.25
vt 38.75 3
vt 35.25 3
vt 38.75 -4.25
vt 35.25 -4.25
vt -35.25 3
vt -35.25 7.5
vt -38.75 3
vt -38.75 7.5
vt -192 3
vt -192 7.5
vt -197.5 3
vt -197.5 7.5
vt -79.24271 3
vt -79.24271 7.5
vt -85.89948 3
vt -85.89948 7.5
vt 82.69203 2.999998
vt 82.69203 7.500002
vt 68.7457 2.999998
vt 68.7457 7.500002
vt 19.75 2.999998
vt 19.75 7.5
vt 10.25 3
vt 10.25 7.500002
vt -132.5825 3
vt -132.5825 7.5
vt -142.8356 3
vt -142.8356 7.5
vt 108.0441 3
vt 108.0441 7.5
vt 83.26257 3
vt 83.26257 7.5
vt 192.25 3
vt 192.25 7.5
vt 179.25 3
vt 179.25 7.5
vt 56.7002 3
vt 56.7002 7.5
vt 47.48066 3
vt 47.48066 7.5
vt 177.3363 3
vt 177.3363 7.5
vt 176.3363 3
vt 176.3363 7.5
vt 64.65311 7.5
vt 64.65311 3
vt 68.68423 7.5
vt 68.68423 3
vt -83.82429 7.5
vt -83.82429 3
vt -71.0841 7.5
vt -71.0841 3
vt -19.5 7.500002
vt -19.5 3
vt -10.25 7.5
vt -10.25 2.999998
vt 103.4282 7.5
vt 103.4282 3
vt 112.3795 7.5
vt 112.3795 3
vt -111.7909 7.5
vt -111.7909 3
vt -96.12051 7.5
vt -96.12051 3
vt -187 7.5
vt -187 3
vt -184.75 7.5
vt -184.75 3
vt -67.90992 7.5
vt -67.90992 3
vt -60.79479 7.5
vt -60.79479 3
vt -182.3192 7.5
vt -182.3192 3
vt -181.3192 7.5
vt -181.3192 3
vt 23.87432 -3.25
vt 23.12432 -3.25
vt 23.87432 7.25
vt 23.12432 7.25
vt -112.597 -3.250002
vt -112.597 7.25
vt -121.0008 -3.25
vt -121.0008 7.250002
vt 18.75 -3.25
vt 18.75 7.25
vt 16.75 -3.25
vt 16.75 7.25
vt 151.25 -3.25
vt 151.25 7.25
vt 144 -3.25
vt 144 7.25
vt 9.25 -3.25
vt 9.25 7.25
vt 9.25 -4.25
vt 162.25 -24.5
vt 155.25 -24.5
vt -134.036 -3.008931
vt -145.9209 -3.008931
vt -134.036 -4.008931
vt -145.9209 -4.008931
vt -161.293 -3.008929
vt -170.3069 -3.008929
vt -161.293 -4.008933
vt -170.3069 -4.008933
vt -21 -4.25
vt -21 7.25
vt -143.7378 -3.250003
vt -143.7378 7.250003
vt -155.5196 -3.250003
vt -155.5196 7.250003
vt -19.97556 -4.25
vt -20.97556 -4.25
vt -19.97556 3
vt -20.97556 3
vt -45.82052 -0.4422343
vt -45.82052 6.807766
vt -49.35606 -0.4422338
vt -49.35606 6.807766
vt 28.99139 -0.4422345
vt 28.99139 6.807767
vt 22.98097 -0.4422345
vt 22.98097 6.807767
vt -156.334 -0.442234
vt -156.334 6.807768
vt -167.8774 -0.4422321
vt -167.8774 6.80777
vt 39.5211 7.25
vt 39.5211 -4.25
vt 55.46828 7.25
vt 55.46828 -4.25
vt -15.3656 7.25
vt -15.3656 -4
vt -10.30966 7.25
vt -10.30966 -4
vt -129.25 29.25
vt -130.25 29.25
vt -129.25 36.75
vt -144 36.75
vt -136.75 24
vt 133.1996 1.749997
vt 146.7204 1.749997
vt 133.1996 7.250003
vt 146.7204 7.250003
vt 113.2264 1.75
vt 113.2264 -2.75
vt 125.7489 1.75
vt 125.7489 -2.75
vt 144 -2.25
vt 130.5 -2.25
vt 130.5 1.75
vt 144 1.75
vt 130.9069 -2.25
vt 129.6569 -2.25
vt 129.6569 1.75
vt 130.9069 1.75
vt -155.25 -44.5
vt -162.25 -44.5
vt 6.421668 0
vt -8.245472 0
vt 6.421668 -0.5
vt -8.245472 -0.5
vt -176.0028 -4.25
vt -177.0028 -4.25
vt -177.0028 0
vt -176.0028 0
vt 177.3053 -4.25
vt 177.3053 0
vt 176.3053 -4.25
vt 176.3053 0
vt 176.5 -42.25
vt 176.5 -30
vt -67.75 13.46995
vt -80 13.46995
vt -67.75 10.46995
vt -80 10.46995
vt -176.5 -29.5
vt -176.5 -41.75
vt -168.75 -29.5
vt -168.75 -41.75
vt 169.75 -42.25
vt 169.75 -30
vt -46.23125 -3.4275
vt -26.01875 -3.4275
vt -46.23125 0.7375
vt -26.01875 0.7375
vt 167.5562 0.7375
vt 167.5562 -3.4275
vt 178.6938 0.7375
vt 178.6938 -3.4275
vt -167.5562 -3.4275
vt -167.5562 0.7375
vt -178.6938 -3.4275
vt -178.6938 0.7375
vt 188.342 7.5
vt 189.342 7.5
vt 189.342 -4.25
vt 188.342 -4.25
vt 189.5 7.5
vt 192 7.5
vt 192 -4.25
vt 189.5 -4.25
vt -189.5 -35.25
vt -188.5 -35.25
vt -189.5 -38.75
vt -189.5 7.5
vt -189.5 -4.25
vt -192 -4.25
vt -188.999 7.5
vt -187.999 7.5
vt -187.999 -4.25
vt -188.999 -4.25

vn 0 1 0
vn -1 0 0
vn -0.5547002 0 -0.8320503
vn 0.3846154 0 0.9230769
vn 0.2095291 0 0.9778025
vn 1 0 0
vn 0 0 -1
vn 0 -1 0
vn 0 0 1
vn -0.6283371 0 0.7779412
vn -0.03446228 0 0.999406
vn 0.9309732 0 -0.3650875
vn 0.3392655 0 -0.9406907
vn 0.7592566 0 -0.6507913
vn 0.697355 0 0.7167259
vn 0.09571241 0 -0.9954091
vn -0.1240347 0 -0.9922779
vn -0.6489466 0 -0.760834
vn -0.3690329 0 0.9294163
vn 0.3987261 0 -0.9170701
vn 0.7071068 0 0.7071068
vn -0.7837459 0 -0.6210817
vn -0.7525767 0 0.6585046
vn 0.3987261 0 0.9170701
vn 0.7525767 0 -0.6585046
vn 0.8262274 0 0.5633368
vn 0.9679969 0 -0.2509622
vn 0.8574929 0 -0.5144958
vn -0.9761871 0 -0.2169305
vn -0.8682432 0 -0.496139
vn -0.961524 0 0.2747211
vn -0.8099421 0 -0.5865098
vn -0.8295878 0 0.5583764
vn 0.9486833 0 0.3162278
vn -0.5057195 0 0.862698
vn 0.2524219 0 0.9676172
vn -0.3328201 0 0.9429904
vn -0.2970665 0 0.9548568
vn -0.9899495 0 0.1414213
vn -0.9566739 0 -0.2911616
vn 0.3032037 0 0.9529258
vn 0.9719588 0 -0.2351513
vn 0.9889364 0 0.1483404
vn 0.4392101 0 -0.8983844
vn -0.8692901 0 -0.4943022

g l1_geo05_0
usemtl nukage1
f 19/22/1 23/27/1 22/26/1
f 16/19/1 14/17/1 13/16/1
f 13/16/1 15/18/1 16/19/1
f 17/20/1 13/16/1 14/17/1
f 14/17/1 18/21/1 17/20/1
f 19/22/1 17/20/1 18/21/1
f 18/21/1 20/23/1 19/22/1
f 21/25/1 17/20/1 19/24/1
f 19/24/1 22/26/1 21/25/1
f 63/101/1 61/99/1 60/98/1
f 60/98/1 62/100/1 63/101/1
f 64/102/1 63/101/1 62/100/1
f 62/100/1 65/103/1 64/102/1
f 66/105/1 64/104/1 65/103/1
f 65/103/1 67/106/1 66/105/1

g l1_geo05_1
usemtl floor5_2
f 90/26/1 59/138/1 47/68/1
f 44/65/1 11/6/1 12/7/1
f 12/7/1 43/64/1 44/65/1
f 45/66/1 44/65/1 43/64/1
f 43/64/1 46/67/1 45/66/1
f 47/68/1 45/66/1 46/67/1
f 46/67/1 48/69/1 47/68/1
f 89/99/1 48/69/1 87/137/1
f 87/137/1 88/98/1 89/99/1
f 47/68/1 48/69/1 89/99/1
f 89/99/1 90/26/1 47/68/1
f 91/25/1 90/26/1 89/99/1
f 89/99/1 92/101/1 91/25/1
f 93/20/1 91/25/1 92/101/1
f 92/101/1 94/102/1 93/20/1
f 95/16/1 93/20/1 94/102/1
f 94/102/1 96/105/1 95/16/1
f 150/106/1 26/18/1 95/16/1
f 95/16/1 96/105/1 150/106/1
f 151/338/1 28/337/1 26/18/1
f 26/18/1 150/106/1 151/338/1

g l1_geo05_2
usemtl nukedge
f 61/142/15 63/141/15 92/139/15 89/140/15
f 60/146/16 61/145/16 89/143/16 88/144/16
f 22/150/17 23/149/17 59/147/17 90/148/17
f 21/154/18 22/153/18 90/151/18 91/152/18
f 17/158/19 21/157/19 91/155/19 93/156/19
f 63/162/20 64/161/20 94/159/20 92/160/20
f 64/166/21 66/165/21 96/163/21 94/164/21
f 13/170/22 17/169/22 93/167/22 95/168/22
f 66/342/36 67/341/36 150/339/36 96/340/36
f 15/346/37 13/345/37 95/343/37 26/344/37

g l1_geo05_3
usemtl support2
f 49/72/9 50/73/9 4/71/9 3/70/9
f 54/84/7 55/85/7 11/83/7 44/82/7
f 70/109/7 71/110/7 69/108/7 68/107/7
f 115/285/7 144/284/7 142/282/7 113/283/7
f 143/317/9 114/316/9 112/314/9 141/315/9
f 117/320/2 118/321/2 43/319/2 12/318/2
f 76/355/2 77/356/2 82/354/2 16/353/2
f 157/394/7 158/397/7 154/396/7 1/395/7
f 163/407/9 162/406/9 86/405/9 161/404/9
f 166/411/7 165/410/7 85/408/7 164/409/7
f 172/438/7 171/437/7 147/436/7 75/439/7
f 148/451/9 173/450/9 174/453/9 84/452/9

g l1_geo05_4
usemtl ceil3_5
f 50/378/8 155/380/8 52/381/8
f 54/201/8 56/199/8 117/198/8
f 117/198/8 55/200/8 54/201/8
f 118/202/8 117/198/8 56/199/8
f 56/199/8 119/203/8 118/202/8
f 120/205/8 119/204/8 56/199/8
f 56/199/8 57/206/8 120/205/8
f 121/207/8 120/205/8 57/206/8
f 57/206/8 58/208/8 121/207/8
f 122/210/8 120/205/8 121/209/8
f 121/209/8 123/211/8 122/210/8
f 27/212/8 121/207/8 58/208/8
f 58/208/8 116/192/8 27/212/8
f 24/213/8 27/212/8 116/192/8
f 116/192/8 124/214/8 24/213/8
f 25/120/8 24/215/8 124/214/8
f 124/214/8 125/119/8 25/120/8
f 155/380/8 50/378/8 49/377/8
f 49/377/8 154/379/8 155/380/8
f 53/198/8 52/381/8 155/380/8
f 155/380/8 156/200/8 53/198/8
f 159/398/8 121/207/8 27/212/8
f 27/212/8 160/399/8 159/398/8

g l1_geo05_5
usemtl floor4_8
f 84/133/1 85/135/1 86/136/1
f 129/223/1 130/224/1 127/221/1
f 4/4/1 51/5/1 2/2/1
f 4/4/1 2/2/1 1/1/1
f 1/1/1 3/3/1 4/4/1
f 7/6/1 5/2/1 6/5/1
f 6/5/1 8/7/1 7/6/1
f 68/129/1 69/128/1 16/19/1
f 16/19/1 82/130/1 68/129/1
f 73/131/1 68/129/1 82/130/1
f 82/130/1 83/132/1 73/131/1
f 84/133/1 73/131/1 83/132/1
f 83/132/1 85/134/1 84/133/1
f 129/223/1 127/221/1 126/220/1
f 126/220/1 128/222/1 129/223/1
f 131/225/1 127/221/1 130/224/1
f 130/224/1 132/226/1 131/225/1
f 133/227/1 131/225/1 132/226/1
f 132/226/1 134/228/1 133/227/1
f 135/229/1 133/227/1 134/228/1
f 134/228/1 136/230/1 135/229/1
f 137/232/1 135/231/1 136/230/1
f 136/230/1 138/233/1 137/232/1
f 139/234/1 137/232/1 138/233/1
f 138/233/1 140/235/1 139/234/1
f 141/236/1 139/234/1 140/235/1
f 140/235/1 142/237/1 141/236/1
f 143/22/1 141/236/1 142/237/1
f 142/237/1 144/27/1 143/22/1
f 161/412/1 86/136/1 85/135/1
f 85/135/1 165/413/1 161/412/1
f 169/422/1 161/412/1 165/413/1
f 165/413/1 170/423/1 169/422/1

g l1_geo05_6
usemtl wall62_2
f 24/30/4 25/31/4 16/29/4 15/28/4
f 28/35/5 27/34/5 24/32/5 26/33/5
f 31/38/2 32/39/2 30/37/2 29/36/2
f 42/63/2 41/62/2 40/60/2 38/61/2
f 45/89/12 56/88/12 54/86/12 44/87/12
f 47/93/6 57/92/6 56/90/6 45/91/6
f 59/97/13 58/96/13 57/94/13 47/95/13
f 73/114/14 72/113/14 70/111/14 68/112/14
f 75/118/6 74/117/6 72/115/6 73/116/6
f 116/197/23 58/196/23 115/194/23 114/195/23
f 71/219/24 76/218/24 25/216/24 125/217/24
f 23/241/25 19/240/25 143/238/25 144/239/25
f 146/245/6 145/244/6 128/242/6 126/243/6
f 148/249/2 79/248/2 74/246/2 147/247/2
f 100/253/9 129/252/9 128/250/9 99/251/9
f 101/257/26 130/256/26 129/254/26 100/255/26
f 103/261/27 132/260/27 130/258/27 101/259/27
f 105/265/6 134/264/6 132/262/6 103/263/6
f 107/269/21 136/268/21 134/266/21 105/267/21
f 109/273/28 138/272/28 136/270/28 107/271/28
f 111/277/7 140/276/7 138/274/7 109/275/7
f 113/281/29 142/280/29 140/278/29 111/279/29
f 127/289/30 98/288/30 97/286/30 126/287/30
f 131/293/31 102/292/31 98/290/31 127/291/31
f 133/297/2 104/296/2 102/294/2 131/295/2
f 135/301/32 106/300/32 104/298/32 133/299/32
f 137/305/33 108/304/33 106/302/33 135/303/33
f 139/309/9 110/308/9 108/306/9 137/307/9
f 141/313/34 112/312/34 110/310/34 139/311/34
f 119/325/35 46/324/35 43/322/35 118/323/35
f 120/329/2 48/328/2 46/326/2 119/327/2
f 122/333/7 87/332/7 48/330/7 120/331/7
f 149/335/2 88/334/2 87/328/2 122/329/2
f 42/63/2 29/36/2 60/336/2 149/335/2
f 41/62/2 123/348/2 67/347/2 30/37/2
f 121/352/38 151/351/38 150/349/38 123/350/38
f 78/360/39 83/359/39 82/357/39 77/358/39
f 80/364/40 85/363/40 83/361/40 78/362/40
f 79/368/41 84/367/41 86/365/41 81/366/41
f 20/372/42 124/371/42 116/369/42 19/370/42
f 153/376/43 125/375/43 124/373/43 152/374/43
f 162/417/2 164/416/2 80/414/2 81/415/2
f 167/427/2 168/426/2 169/424/2 170/425/2
f 165/431/7 166/430/7 167/428/7 170/429/7
f 163/435/9 161/434/9 169/432/9 168/433/9
f 146/442/7 97/441/7 171/440/7 172/443/7
f 173/447/9 99/251/9 145/449/9 174/448/9

g l1_geo05_7
usemtl floor6_2
f 81/127/8 80/126/8 79/125/8
f 98/172/8 101/175/8 100/174/8
f 148/125/8 147/445/8 171/444/8
f 148/125/8 171/444/8 173/446/8
f 97/171/8 173/446/8 171/444/8
f 97/171/8 99/173/8 173/446/8
f 70/121/8 77/122/8 76/120/8
f 76/120/8 71/119/8 70/121/8
f 72/123/8 78/124/8 77/122/8
f 77/122/8 70/121/8 72/123/8
f 79/125/8 80/126/8 78/124/8
f 78/124/8 72/123/8 79/125/8
f 98/172/8 100/174/8 99/173/8
f 99/173/8 97/171/8 98/172/8
f 102/176/8 103/177/8 101/175/8
f 101/175/8 98/172/8 102/176/8
f 104/178/8 105/179/8 103/177/8
f 103/177/8 102/176/8 104/178/8
f 106/180/8 107/181/8 105/179/8
f 105/179/8 104/178/8 106/180/8
f 108/184/8 109/185/8 107/183/8
f 107/183/8 106/182/8 108/184/8
f 110/187/8 111/188/8 109/185/8
f 109/185/8 108/186/8 110/187/8
f 112/189/8 113/190/8 111/188/8
f 111/188/8 110/187/8 112/189/8
f 114/192/8 115/193/8 113/191/8
f 113/191/8 112/189/8 114/192/8

g l1_geo05_8
usemtl flat20
f 35/46/1 32/47/1 31/45/1 36/44/1
f 40/55/8 39/54/8 37/52/8 38/53/8

g l1_geo05_9
usemtl ttall1_2
f 38/51/7 37/50/7 36/48/7 31/49/7
f 39/59/9 40/58/9 32/56/9 35/57/9

g l1_geo05_10
usemtl tlite6_6
f 168/421/8 167/420/8 164/418/8 162/419/8

g l1_geo05_11
usemtl sw12_full
f 35/42/6 36/43/6 34/41/6 33/40/6

g l1_geo05_12
usemtl wall02_2
f 10/11/2 9/10/2 3/8/2 1/9/2

g l1_geo05_13
usemtl wall02_full
f 12/15/3 11/14/3 7/12/3 8/13/3
f 52/77/10 51/76/10 4/74/10 50/75/10
f 53/81/11 8/80/11 6/78/11 52/79/11
f 55/385/3 117/384/3 53/382/3 156/383/3
f 7/389/44 156/388/44 155/386/44 5/387/44
f 2/390/7 155/393/7 158/392/7 157/391/7
f 6/403/45 5/402/45 2/400/45 51/401/45

g l1_geo05_14
usemtl sw11_full

