# ProBuilder 4.0.5
# https://unity3d.com/unity/features/worldbuilding/probuilder
# 3/22/2020 4:00:37 PM

mtllib ./l1_geo04.mtl
o l1_geo04

g l1_geo04
v 4 -2 19.25
v 2 -2 19.25
v 4 4.75 19.25
v 2 4.75 19.25
v 0 -2 14
v 0 4.75 14
v 11 -2 19.25
v 13 -2 19.25
v 11 4.75 19.25
v 13 4.75 19.25
v 15 -2 14
v 15 4.75 14
v -27 -5 6
v -29.5 -5 6.5
v -27 3.5 6
v -29.5 3.5 6.5
v -29.5 -4.25 6.5
v -31.5 -4.25 6.5
v -31.5 3.5 6.5
v -31.5 -3.5 6.5
v -33.25 -3.5 6.5
v -33.25 3.5 6.5
v -33.25 -2.75 6.5
v -35 -2.75 6.5
v -35 3.5 6.5
v -35 -2 6.5
v -36.75 -2 6.5
v -36.75 3.5 6.5
v -36.75 -1.25 6.5
v -38.5 -1.25 6.5
v -38.5 3.5 6.5
v -38.5 -0.5 6.5
v -40.75 -0.5 6.5
v -40.75 3.5 6.5
v -24 3.5 13
v -27.25 3.5 14
v -40.75 3.5 14
v -27.25 -5 14
v -29.5 -5 14
v -29.5 3.5 14
v -29.5 -4.25 14
v -31.5 -4.25 14
v -31.5 3.5 14
v -31.5 -3.5 14
v -33.25 -3.5 14
v -33.25 3.5 14
v -33.25 -2.75 14
v -35 -2.75 14
v -35 3.5 14
v -35 -2 14
v -36.75 -2 14
v -36.75 3.5 14
v -36.75 -1.25 14
v -38.5 -1.25 14
v -38.5 3.5 14
v -38.5 -0.5 14
v -40.75 -0.5 14
v -24 -5 13
v 0.25 -2 61.5
v 4.25 -2 61.5
v 0.25 15.25 61.5
v 4.25 15.25 61.5
v -1 15.25 57
v -1 -2 57
v -11 15.25 51.25
v -11 -2 51.25
v -28.5 15.25 51.25
v -28.5 -2 51.25
v -26 -5.75 6
v -7.5 -5.75 -3.75
v -26 -1 6
v -7.5 -1 -3.75
v -27 -5.75 6
v -27 -1 6
v 50 -2 60.75
v 50 -2 51.75
v 50 15.25 60.75
v 50 15.25 51.75
v 44.75 15.25 63.75
v 44.75 -2 63.75
v 33.75 15.25 63.75
v 33.75 -2 63.75
v 42.25 -2.75 47.75
v 32.75 -2.75 51.75
v 40.75 -2.75 35.75
v 26 -2.75 32.25
v 19.75 -2.75 51.75
v 10.75 -2.75 34.5
v 11.5 -2.75 49.5
v 6.5 -2.75 42
v -28.5 -2 21.5
v -28.5 -2 37.25
v -28.5 15.25 21.5
v -28.5 15.25 37.25
v -28.5 7.5 37.25
v -28.5 7.5 51.25
v -1 -5.75 3.5
v 0 -5.75 3.5
v -1 0 3.5
v 0 0 3.5
v -6.5 0 3.5
v -6.5 -5.75 3.5
v -7.5 0 3.5
v -7.5 -5.75 3.5
v 33.75 1 71.25
v 22 1 71.25
v 22 1 63.75
v 33.75 1 63.75
v 4.25 1 61.5
v 18.25 1 61.5
v 18.25 1 71.25
v 4.25 1 71.25
v 22 -2 63.75
v 18.25 -2 61.5
v 4.25 1 68
v 4.25 6 61.5
v 4.25 6 68
v -14.75 -2 16
v -14.75 2.5 16
v -28.5 2.5 21.5
v 0 2.5 14
v 11 -5.75 6.25
v 4 -5.75 6.25
v 11 -5.75 5.25
v 4 -5.75 5.25
v 11 -5 6.25
v 4 -5 6.25
v 11 -5 8
v 4 -5 8
v 11 -4.25 8
v 4 -4.25 8
v 11 -4.25 9.75
v 4 -4.25 9.75
v 11 -3.5 9.75
v 4 -3.5 9.75
v 11 -3.5 11.5
v 4 -3.5 11.5
v 11 -2.75 11.5
v 4 -2.75 11.5
v 11 -2.75 13.25
v 4 -2.75 13.25
v 11 -2 13.25
v 4 -2 13.25
v -27.25 -4.25 14
v -24 -5.75 13
v -23 -5.75 13
v 0 -5.75 -3.75
v 7.25 -5.75 -0.75
v 33 -2 16
v 33 2.5 16
v 15 2.5 14
v 40.75 2.5 19.5
v 40.75 -2 19.5
v 50 2.5 20.75
v 50 -2 20.75
v 11 2 6.25
v 4 2 6.25
v 11 2 19.25
v 4 2 19.25
v 11 -1 6.25
v 4 -1 6.25
v 11 -1 5.25
v 4 -1 5.25
v 7.25 -1 -0.75
v 0 -1 3.5
v 0 -1 -3.75
v 0 0 -3.75
v 50 -2 28
v 50 15.25 28
v 50 15.25 20.75
v -1 -5.75 -3.75
v -1 0 -3.75
v -6.5 0 -3.75
v -6.5 -5.75 -3.75
v -7.5 0 -3.75
v -23 -1 13
v -7.5 -1 3.5
v -24 -1 13
v 4 -2 18.25
v 4 2 18.25
v 4 2 13.25
v 4 2 11.5
v 4 2 9.75
v 4 2 8
v 50 -2 37
v 50 1 37
v 50 1 28
v 6.5 -2 42
v 11.5 -2 49.5
v 19.75 -2 51.75
v 32.5 -2 51.75
v 42.25 -2 47.75
v 10.75 -2 34.5
v 26 -2 32.25
v 40.75 -2 35.75
v 32.5 -2.75 51.75
v 50 -2 48
v 50 -2 35.75
v 11 -2 18.25
v 11 2 18.25
v 11 2 13.25
v 11 2 11.5
v 11 2 9.75
v 11 2 8
v 33.75 6 68
v 33.75 6 63.75
v 33.75 1 68

vt -62.57978 -5
vt -64.57978 -5
vt -62.57978 1.75
vt -64.57978 1.75
vt -70.19783 -5
vt -70.19783 1.75
vt -103.5 -5
vt -101.5 -5
vt -103.5 1.75
vt -101.5 1.75
vt -11.60322 -5
vt -5.985168 -5
vt -11.60322 1.75
vt -5.985168 1.75
vt -131.0056 -13.5
vt -133.5551 -13.5
vt -131.0056 -5
vt -133.5551 -5
vt -143.9977 -12.75
vt -143.9977 -5
vt -145.9977 -12.75
vt -145.9977 -5
vt -145.9974 -12
vt -145.9974 -5
vt -147.7474 -12
vt -147.7474 -5
vt -147.7474 -11.25
vt -149.4974 -11.25
vt -149.4974 -5
vt -149.4974 -10.5
vt -151.2474 -10.5
vt -151.2474 -5
vt -151.2474 -9.75
vt -152.9974 -9.75
vt -152.9974 -5
vt -152.998 -9
vt -152.998 -5
vt -155.248 -9
vt -155.248 -5
vt 1.5 -1.5
vt -1 -1
vt 4.5 5.5
vt 1.25 6.5
vt -1.000031 -0.9999905
vt 1.249969 6.50001
vt -12.25003 -0.9999905
vt -12.25003 6.50001
vt 126.218 -13.5
vt 128.468 -13.5
vt 126.218 -5
vt 128.468 -5
vt 143.9977 -12.75
vt 143.9977 -5
vt 145.9977 -12.75
vt 145.9977 -5
vt 145.9974 -12
vt 145.9974 -5
vt 147.7474 -12
vt 147.7474 -5
vt 147.7474 -11.25
vt 149.4974 -11.25
vt 149.4974 -5
vt 149.4974 -10.5
vt 151.2474 -10.5
vt 151.2474 -5
vt 151.2474 -9.75
vt 152.9974 -9.75
vt 152.9974 -5
vt 152.998 -9
vt 152.998 -5
vt 155.248 -9
vt 155.248 -5
vt 122.8176 -13.5
vt 122.8176 -5
vt 114.25 -4.75
vt 110.25 -4.75
vt 114.25 12.5
vt 110.25 12.5
vt 15.16203 12.5
vt 15.16203 -4.75
vt 19.83241 12.5
vt 19.83241 -4.75
vt 94.39526 12.5
vt 94.39526 -4.75
vt 105.9305 12.5
vt 105.9305 -4.75
vt 125.5 12.5
vt 125.5 -4.75
vt 143 12.5
vt 143 -4.75
vt -105.8781 -16.75
vt -84.96609 -16.75
vt -105.8781 -12
vt -84.96609 -12
vt -18.68778 0
vt -18.68778 4.75
vt -19.68778 0
vt -19.68778 4.75
vt 15.25 -4.75
vt 6.25 -4.75
vt 15.25 12.5
vt 6.25 12.5
vt 63.5678 12.5
vt 63.5678 -4.75
vt 69.61449 12.5
vt 69.61449 -4.75
vt 69.75 12.5
vt 69.75 -4.75
vt 80.75 12.5
vt 80.75 -4.75
vt 0 0.75
vt 9.5 4.75
vt 1.5 -11.25
vt 16.25 -14.75
vt 16.25003 -14.74999
vt 22.50003 4.750008
vt 31.50003 -12.49999
vt 30.75005 2.500023
vt 35.75005 -4.999977
vt 24 -4.75
vt 8.25 -4.75
vt 24 12.5
vt 8.25 12.5
vt 8.25 4.75
vt -5.75 4.75
vt -5.75 12.5
vt 1.308601 0
vt 0.3086014 0
vt 1.308601 5.75
vt 0.3086014 5.75
vt 115.5008 -7
vt 115.5008 -12.75
vt 121.0008 -7
vt 121.0008 -12.75
vt 6.974003 5.75
vt 6.974003 0
vt 7.974003 5.75
vt 7.974003 0
vt 80.75 25.75
vt 92.5 25.75
vt 92.5 18.25
vt 80.75 18.25
vt 110.25 16
vt 96.25 16
vt 96.25 25.75
vt 110.25 25.75
vt 92.5 -1.75
vt 80.75 -1.75
vt 92.5 -4.75
vt 74.30176 -1.75
vt 69.92854 -1.75
vt 74.30176 -4.75
vt 69.92854 -4.75
vt 110.25 -1.75
vt 96.25 -1.75
vt 96.25 -4.75
vt -16 0.47
vt -22.5 0.47
vt -16 5.47
vt -22.5 5.47
vt -79.23387 -9.145
vt -86.63847 -9.145
vt -79.23387 -6.895
vt -86.63847 -6.895
vt -120.393 -6.894999
vt -120.393 -9.144999
vt -112.9505 -6.894999
vt -112.9505 -9.144999
vt 103.5 -39.25
vt 110.5 -39.25
vt 103.5 -40.25
vt 110.5 -40.25
vt -2.5 1.031698
vt 4.5 1.031698
vt -2.5 1.781698
vt 4.5 1.781698
vt 103.5 -37.5
vt 110.5 -37.5
vt -2.5 5.010599
vt 4.5 5.010599
vt -2.5 5.7606
vt 4.5 5.7606
vt 103.5 -35.75
vt 110.5 -35.75
vt -2.5 5.007835
vt 4.5 5.007835
vt -2.5 5.757835
vt 4.5 5.757835
vt 103.5 -34
vt 110.5 -34
vt -2.5 4.988949
vt 4.5 4.988949
vt -2.5 5.738949
vt 4.5 5.738949
vt 103.5 -32.25
vt 110.5 -32.25
vt -2.499999 5.008408
vt 4.500001 5.008408
vt -2.499999 5.758409
vt 4.500001 5.758409
vt -2.5 7
vt 4.5 7
vt -2.5 13
vt 4.5 13
vt -1.25 1
vt 1 1
vt -1.25 -6.5
vt 1 -6.5
vt 6.5 1.75
vt -1 1.75
vt 6.5 1
vt -1 1
vt 153 -39
vt 153 -31.5
vt 151.25 -39
vt 151.25 -31.5
vt 149.5 -39
vt 149.5 -31.5
vt 147.75 -39
vt 147.75 -31.5
vt 146 -39
vt 146 -31.5
vt 144 -39
vt 141.75 -31.5
vt 3.280555 -2.249999
vt -4.549675 -2.249999
vt 3.280555 -2.999999
vt -4.549675 -2.999999
vt 141.5 -39.5
vt 138.5 -32.5
vt 1.411544 -2.249999
vt -6.204229 -2.249999
vt 1.411544 -3
vt -6.204229 -3
vt 140.5 -39.5
vt 137.5 -32.5
vt 122 -49.25
vt 122 -42
vt 114.5 -49.25
vt 114.5 -42
vt 107.25 -46.25
vt -101.7687 -9.145
vt -110.8241 -9.145
vt -101.7687 -6.895
vt -110.8241 -6.895
vt -106.1887 -6.895
vt -106.1887 -9.145
vt -101.9369 -6.895
vt -101.9369 -9.145001
vt -98.41966 -6.894999
vt -98.41966 -9.144999
vt -93.75261 -6.894999
vt -93.75261 -9.144999
vt 6 -13
vt -1 -13
vt 6 0
vt -1 0
vt -58.00648 -5.000001
vt -65.00648 -5.000001
vt -58.00648 -8.000001
vt -65.00648 -8.000001
vt 6 -14
vt -1 -14
vt -110.5 -1
vt -103.5 -1
vt -110.5 1.75
vt 2.25 -20.00008
vt -5 -15.75008
vt 2.249962 -20.00007
vt -5.00004 -23.00007
vt -49.25 -7.999998
vt -42 -7.999998
vt -49.25 -6.999998
vt -42 -6.999998
vt -17.5 -4.75
vt -24.75 -4.75
vt -17.5 12.5
vt -24.75 12.5
vt 0 0
vt -1 5.75
vt 0 5.75
vt -115.5008 -7
vt -115.5008 -12.75
vt -121.0008 -7
vt -121.0008 -12.75
vt -6.650894 5.75
vt -6.650894 0
vt -7.650894 5.75
vt -7.650894 0
vt 100.2494 -16.75
vt 82.06974 -16.75
vt 100.2494 -12
vt 82.06974 -12
vt 15.00597 4.75
vt 15.00597 0
vt 16.00597 4.75
vt 16.00597 0
vt 5.722046E-06 -7.25
vt -18.49999 2.5
vt -15.49999 9.5
vt -18.4999 2.499957
vt -15.4999 9.499957
vt -19.4999 2.499957
vt -16.4999 9.499957
vt 42 -8
vt 49.25 -8
vt 42 -7
vt 49.25 -7
vt -92.04582 -9.500003
vt -84.43004 -9.500005
vt -92.04582 -4.999999
vt -84.43004 -5.000001
vt 1.333874 0
vt 0.3338737 0
vt 1.333874 4
vt 0.3338737 4
vt 27.24773 -4.999999
vt 27.24773 -9
vt 32.24773 -5
vt 32.24773 -9.000001
vt 32.24351 -5
vt 32.24351 -9.75
vt 33.99351 -5
vt 33.99351 -9.75
vt 33.99351 -10.5
vt 35.74351 -5
vt 35.74351 -10.5
vt 35.74351 -11.25
vt 37.49351 -5
vt 37.49351 -11.25
vt 37.49351 -12
vt 39.24351 -5
vt 39.24351 -12
vt 13.69328 1
vt 13.69328 -3.75
vt 14.69328 1
vt 14.69328 -3.75
vt 117.3685 -12
vt 117.3685 -16.75
vt 121.7346 -12
vt 121.7346 -16.75
vt -8.5 -4.75
vt -8.5 -1.75
vt -17.5 -1.75
vt 125.5 5.75
vt 143 5.75
vt 129.25 -29.5
vt 143 -24
vt 114.5 -31.5
vt 115.5 11.5
vt 112.5 -26.25
vt 108 -3.5
vt 103 4
vt 114.25 16
vt 94.75 6.249998
vt 82 6.249998
vt 82 6.25
vt 72.25 2.250001
vt 69.75 18.25
vt 101.5 -26.25
vt 103.75 -11
vt 99.5 -31.5
vt 88.5 -13.25
vt 81.5 -29.5
vt 73.75 -9.75
vt 73.75 -9.749999
vt 73.75 -26
vt -8.178566 0.9999986
vt -16.72988 1
vt -8.178566 0.2500005
vt -16.72988 0.2500019
vt -8.75 1.000001
vt -21.5 1.000001
vt -8.75 0.2499995
vt -21.5 0.2499995
vt -8.039409 1
vt -18.57803 1.000002
vt -8.039409 0.2499995
vt -18.57803 0.2500014
vt -15.60094 0.9999976
vt -24.61482 0.999999
vt -15.60094 0.2499995
vt -24.61482 0.250001
vt -12.52107 0.999999
vt -21.14154 1
vt -12.52107 0.2499981
vt -21.14154 0.2499995
vt 13.08783 1
vt -2.327268 1.000003
vt 13.08783 0.2499979
vt -2.327268 0.2500007
vt 32.52484 0.9999988
vt 17.36527 1.000001
vt 32.52484 0.2499983
vt 17.36527 0.2500007
vt 64.5 15.25
vt 64.5 2.5
vt 64.5 -24.75
vt 64.5 -9.75
vt -16.03149 1
vt -28.12488 1.000002
vt -16.03149 0.249999
vt -28.12488 0.250001
vt -1.038904 0
vt -0.03890419 0
vt -1.038904 4
vt -0.03890419 4
vt -27.24773 -5
vt -27.24773 -9
vt -32.24773 -5
vt -32.24773 -9
vt -32.24351 -5
vt -32.24351 -9.75
vt -33.99351 -5
vt -33.99351 -9.75
vt -33.99351 -10.5
vt -35.74351 -5
vt -35.74351 -10.5
vt -35.74351 -11.25
vt -37.49351 -5
vt -37.49351 -11.25
vt -37.49351 -12
vt -39.24351 -5
vt -39.24351 -12
vt -13.32039 1
vt -13.32039 -3.75
vt -14.32039 1
vt -14.32039 -3.75
vt -88.99203 -12
vt -88.99203 -16.75
vt -96.06753 -12
vt -96.06753 -16.75
vt -96.06708 -16.75001
vt -96.06707 -12
vt -103.9132 -16.75
vt -103.9132 -12
vt 0 -3.5
vt -7.5 -3.5
vt 0 3.75
vt -7.5 3.75
vt 68 4.87
vt 63.75 4.87
vt 68 -0.13
vt 63.75 -0.13

vn 0 0 1
vn -0.9344878 0 0.3559953
vn 0.9344878 0 0.3559953
vn 0.1961161 0 0.9805807
vn 0 -1 0
vn 0 0 -1
vn -0.2940859 0 -0.955779
vn 0.9635179 0 -0.2676439
vn 0.4984711 0 -0.8669063
vn 0.4662391 0 0.8846588
vn -1 0 0
vn -0.496139 0 -0.8682432
vn 0 1 0
vn 1 0 0
vn 0.5144957 0 -0.8574929
vn 0.3713907 0 0.9284766
vn 0.1343637 0 0.9909321
vn 0.9578263 0 -0.2873479
vn 0.919145 0 -0.3939193
vn -0.1104315 0 0.9938837
vn -0.4115867 0 0.9113706
vn -0.1339179 0 0.9909924
vn -0.5225621 0 -0.8526013
vn -0.919145 0 0.3939193
vn 0.4008189 0 -0.9161574
vn 0.2631174 0 -0.9647638
vn -0.3795564 0 -0.9251686
vn 0.8320503 0 -0.5547002
vn 0.8700222 0 0.4930125
vn 0.1459609 0 0.9892904
vn -0.2308773 0 0.9729829
vn -0.9922779 0 0.1240347
vn -0.8479983 0 0.529999
vn -0.3823518 0 0.9240168

g l1_geo04_0
usemtl wall02_2
f 127/176/6 126/175/6 122/173/6 123/174/6
f 131/182/6 130/181/6 128/179/6 129/180/6
f 135/188/6 134/187/6 132/185/6 133/186/6
f 139/194/6 138/193/6 136/191/6 137/192/6
f 143/200/6 142/199/6 140/197/6 141/198/6
f 54/212/14 30/211/14 32/209/14 56/210/14
f 51/212/14 27/211/14 29/209/14 53/210/14
f 48/212/14 24/211/14 26/209/14 50/210/14
f 45/212/14 21/211/14 23/209/14 47/210/14
f 42/212/14 18/211/14 20/209/14 44/210/14
f 38/228/18 14/227/18 17/225/18 144/226/18
f 145/234/19 73/233/19 13/231/19 58/232/19

g l1_geo04_1
usemtl wall02_full
f 32/207/13 33/208/13 57/206/13 56/205/13
f 161/261/1 160/260/1 156/258/1 157/259/1

g l1_geo04_2
usemtl sw12_full
f 61/77/6 62/78/6 60/76/6 59/75/6
f 64/82/8 63/81/8 61/79/8 59/80/8
f 66/86/9 65/85/9 63/83/9 64/84/9
f 68/90/6 67/89/6 65/87/6 66/88/6
f 77/101/11 78/102/11 76/100/11 75/99/11
f 80/106/12 79/105/12 77/103/12 75/104/12
f 82/110/6 81/109/6 79/107/6 80/108/6
f 93/122/14 94/123/14 92/121/14 91/120/14
f 94/123/14 67/126/14 96/125/14 95/124/14
f 82/110/6 113/149/6 107/147/6 108/148/6
f 113/153/15 114/152/15 110/150/15 107/151/15
f 114/156/6 60/76/6 109/154/6 110/155/6
f 169/277/11 170/278/11 155/276/11 168/275/11
f 186/343/11 187/344/11 168/275/11 185/342/11

g l1_geo04_3
usemtl nukage1
f 85/113/13 86/114/13 84/112/13 83/111/13
f 88/117/13 87/116/13 84/112/13 86/115/13
f 90/119/13 89/118/13 87/116/13 88/117/13

g l1_geo04_4
usemtl wall62_1
f 119/163/16 120/164/16 91/162/16 118/161/16
f 5/168/17 121/167/17 119/165/17 118/166/17
f 150/244/20 151/245/20 11/243/20 149/242/20
f 153/249/21 152/248/21 150/246/21 149/247/21
f 155/253/22 154/252/22 152/250/22 153/251/22
f 87/371/26 89/370/26 189/368/26 190/369/26
f 196/375/6 87/374/6 190/372/6 191/373/6
f 83/379/27 196/378/27 191/376/27 192/377/27
f 89/383/28 90/382/28 188/380/28 189/381/28
f 90/387/29 88/386/29 193/384/29 188/385/29
f 88/391/30 86/390/30 194/388/30 193/389/30
f 86/395/31 85/394/31 195/392/31 194/393/31
f 85/403/32 83/402/32 192/400/32 195/401/32

g l1_geo04_5
usemtl floor7_1
f 164/269/5 165/268/5 166/270/5
f 149/364/13 195/366/13 153/367/13
f 36/43/5 16/41/5 15/40/5
f 15/40/5 35/42/5 36/43/5
f 34/46/5 16/44/5 36/45/5
f 36/45/5 37/47/5 34/46/5
f 7/203/13 142/201/13 143/202/13
f 143/202/13 1/204/13 7/203/13
f 159/257/5 157/255/5 156/254/5
f 156/254/5 158/256/5 159/257/5
f 162/262/5 160/254/5 161/255/5
f 161/255/5 163/263/5 162/262/5
f 164/267/5 162/262/5 163/263/5
f 163/263/5 165/268/5 164/267/5
f 71/299/5 72/298/5 177/279/5
f 177/279/5 176/300/5 71/299/5
f 74/303/5 71/301/5 176/302/5
f 176/302/5 178/304/5 74/303/5
f 91/348/13 68/346/13 66/345/13
f 66/345/13 118/347/13 91/348/13
f 5/349/13 118/347/13 66/345/13
f 66/345/13 64/350/13 5/349/13
f 2/351/13 5/349/13 64/350/13
f 64/350/13 188/352/13 2/351/13
f 189/353/13 188/352/13 64/350/13
f 64/350/13 59/354/13 189/353/13
f 190/355/13 189/353/13 59/354/13
f 59/354/13 114/144/13 190/355/13
f 191/356/13 190/355/13 114/144/13
f 114/144/13 113/141/13 191/356/13
f 192/358/13 191/357/13 113/141/13
f 113/141/13 80/359/13 192/358/13
f 8/360/13 2/351/13 188/352/13
f 188/352/13 193/361/13 8/360/13
f 11/362/13 8/360/13 193/361/13
f 193/361/13 194/363/13 11/362/13
f 149/364/13 11/362/13 194/363/13
f 194/363/13 195/365/13 149/364/13
f 75/396/13 197/397/13 192/358/13
f 192/358/13 80/359/13 75/396/13
f 198/399/13 155/398/13 153/367/13
f 153/367/13 195/365/13 198/399/13
f 197/397/13 198/399/13 195/365/13
f 195/365/13 192/358/13 197/397/13

g l1_geo04_6
usemtl support2
f 74/98/1 73/97/1 69/95/1 71/96/1
f 99/129/6 100/130/6 98/128/6 97/127/6
f 104/138/6 103/137/6 101/135/6 102/136/6
f 171/257/1 147/279/1 167/281/1 172/280/1
f 173/286/1 175/288/1 70/289/1 174/287/1
f 145/297/6 178/296/6 176/294/6 146/295/6
f 180/315/14 159/316/14 1/314/14 179/313/14
f 125/337/14 163/336/14 161/334/14 123/335/14
f 199/404/11 7/405/11 158/407/11 200/406/11
f 160/425/11 162/427/11 124/428/11 122/426/11

g l1_geo04_7
usemtl floor5_1
f 148/241/13 125/172/13 124/171/13
f 125/172/13 123/170/13 122/169/13
f 122/169/13 124/171/13 125/172/13
f 128/177/13 126/169/13 127/170/13
f 127/170/13 129/178/13 128/177/13
f 132/183/13 130/177/13 131/178/13
f 131/178/13 133/184/13 132/183/13
f 136/189/13 134/183/13 135/184/13
f 135/184/13 137/190/13 136/189/13
f 140/195/13 138/189/13 139/190/13
f 139/190/13 141/196/13 140/195/13
f 29/215/13 30/213/13 54/214/13
f 54/214/13 53/216/13 29/215/13
f 26/217/13 27/215/13 51/216/13
f 51/216/13 50/218/13 26/217/13
f 23/219/13 24/217/13 48/218/13
f 48/218/13 47/220/13 23/219/13
f 20/221/13 21/219/13 45/220/13
f 45/220/13 44/222/13 20/221/13
f 17/223/13 18/221/13 42/222/13
f 42/222/13 144/224/13 17/223/13
f 13/229/13 14/223/13 38/224/13
f 38/224/13 58/230/13 13/229/13
f 69/235/13 73/229/13 145/230/13
f 145/230/13 146/236/13 69/235/13
f 70/237/13 69/235/13 146/236/13
f 146/236/13 104/238/13 70/237/13
f 147/239/13 70/237/13 104/238/13
f 104/238/13 98/240/13 147/239/13
f 148/241/13 147/239/13 98/240/13
f 98/240/13 125/172/13 148/241/13

g l1_geo04_8
usemtl wall02_full
f 3/3/1 4/4/1 2/2/1 1/1/1
f 4/4/2 6/6/2 5/5/2 2/2/2
f 7/7/1 8/8/1 10/10/1 9/9/1
f 8/11/3 11/12/3 12/14/3 10/13/3
f 15/17/4 16/18/4 14/16/4 13/15/4
f 19/22/1 18/21/1 17/19/1 16/20/1
f 22/26/1 21/25/1 20/23/1 19/24/1
f 25/29/1 24/28/1 23/27/1 22/26/1
f 28/32/1 27/31/1 26/30/1 25/29/1
f 31/35/1 30/34/1 29/33/1 28/32/1
f 34/39/1 33/38/1 32/36/1 31/37/1
f 38/48/6 39/49/6 40/51/6 36/50/6
f 41/52/6 42/54/6 43/55/6 40/53/6
f 44/56/6 45/58/6 46/59/6 43/57/6
f 47/60/6 48/61/6 49/62/6 46/59/6
f 50/63/6 51/64/6 52/65/6 49/62/6
f 53/66/6 54/67/6 55/68/6 52/65/6
f 56/69/6 57/71/6 37/72/6 55/70/6
f 35/74/7 58/73/7 38/48/7 36/50/7
f 69/91/10 70/92/10 72/94/10 71/93/10
f 102/134/6 101/133/6 99/131/6 97/132/6
f 9/9/1 3/266/1 159/264/1 158/265/1
f 100/274/11 167/273/11 166/271/11 165/272/11
f 172/282/1 173/284/1 174/285/1 171/283/1
f 176/292/23 177/293/23 104/291/23 146/290/23
f 175/308/14 103/307/14 177/305/14 72/306/14
f 35/312/24 15/311/24 74/309/24 178/310/24
f 143/320/14 181/319/14 180/317/14 179/318/14
f 139/324/14 182/323/14 181/321/14 141/322/14
f 135/327/14 183/326/14 182/323/14 137/325/14
f 131/330/14 184/329/14 183/326/14 133/328/14
f 127/333/14 157/332/14 184/329/14 129/331/14
f 98/341/25 165/340/25 163/338/25 125/339/25
f 200/408/11 201/410/11 142/411/11 199/409/11
f 201/412/11 202/414/11 138/415/11 140/413/11
f 202/414/11 203/417/11 134/418/11 136/416/11
f 203/417/11 204/420/11 130/421/11 132/419/11
f 204/420/11 156/423/11 126/424/11 128/422/11
f 162/429/33 164/431/33 148/432/33 124/430/33
f 166/436/34 147/435/34 148/433/34 164/434/34

g l1_geo04_9
usemtl tlite6_6
f 100/439/5 103/440/5 175/438/5 167/437/5

g l1_geo04_10
usemtl floor4_8
f 106/140/13 105/139/13 108/142/13 107/141/13
f 112/146/13 111/145/13 110/144/13 109/143/13
f 111/145/13 106/140/13 107/141/13 110/144/13

g l1_geo04_11
usemtl ttall1_2
f 116/159/14 117/160/14 115/158/14 109/157/14
f 108/444/11 207/443/11 205/441/11 206/442/11

